<?xml version='1.0' encoding='utf-8'?>
<svg xmlns="http://www.w3.org/2000/svg" width="385.93px" height="311.85px" enable-background="new 0 0 385.926 311.852" version="1.1" viewBox="0 0 385.926 311.852">
		<rect x="254.91" y="142.13" width="45.02" height="10.929"/>
		<rect transform="matrix(-.866 -.5 .5 -.866 403.92 483.33)" x="244.2" y="182.09" width="45.02" height="10.928"/>
		<rect transform="matrix(-.5 -.866 .866 -.5 168.42 530.85)" x="214.94" y="211.34" width="45.02" height="10.929"/>
		<rect x="192.03" y="205" width="10.929" height="45.021"/>
		<rect transform="matrix(-.8661 -.5 .5 -.8661 185.57 483.33)" x="152.07" y="194.3" width="10.929" height="45.02"/>
		<rect transform="matrix(.866 -.5 .5 .866 -76.588 89.262)" x="105.77" y="182.09" width="45.02" height="10.929"/>
		<rect x="95.063" y="142.13" width="45.02" height="10.928"/>
	<path d="m220.82 110.87c-1.968-1.16-2.506-2.965-2.506-5.028v-33.299c-6.597-1.956-13.583-3.004-20.814-3.004s-14.218 1.049-20.815 3.004v33.299c0 2.063-0.537 3.868-2.506 5.028-12.423 7.321-20.256 21.341-20.256 36.799 0 24.028 19.548 43.577 43.577 43.577 24.028 0 43.576-19.549 43.576-43.577 0-15.46-7.83-29.48-20.25-36.8zm-13.44-5.03c0 8.524 4.941 12.708 7.886 14.443 9.177 5.409 14.877 15.9 14.877 27.384 0 18.002-14.647 32.648-32.648 32.648-18.003 0-32.648-14.646-32.648-32.648 0-11.483 5.701-21.975 14.877-27.384 2.945-1.735 7.857-5.919 7.857-14.443v-11.319c3.215-0.598 6.52-0.944 9.908-0.944 3.383 0 6.681 0.345 9.892 0.94-0.01 4e-3 -0.01 8.133-0.01 11.323z"/>
</svg>