<?xml version="1.0" encoding="UTF-8"?>
<svg width="500" height="500" version="1.1" viewBox="0 0 500.00001 500.00001" xmlns="http://www.w3.org/2000/svg">
 <g transform="translate(0 -552.36)">
  <path d="m269.73 630.56a172.94 172.94 0 0 0 -191.53 152.08 172.94 172.94 0 0 0 152.08 191.53 172.94 172.94 0 0 0 191.53 -152.08 172.94 172.94 0 0 0 -152.08 -191.53zm-1.7746 15.455a157.38 157.38 0 0 1 138.4 174.3 157.38 157.38 0 0 1 -174.3 138.4 157.38 157.38 0 0 1 -138.4 -174.3 157.38 157.38 0 0 1 174.3 -138.4zm33.414 47.471a3.7156 3.7156 0 0 0 -3.8472 5.1003s9.2841 23.65 15.171 50.954c2.9437 13.652 5.0168 28.197 4.7004 40.94-0.31633 12.744-3.0883 23.495-8.9922 30.032-2.6217 2.9026-5.3184 3.9654-8.9114 4.0038-3.5929 0.0384-8.0913-1.2194-13.144-3.5951-6.7451-3.1712-14.411-8.2804-22.484-14.079 0.50757-1.2154 0.85731-2.5183 1.0148-3.8901 0.90424-7.8751-4.7749-15.028-12.65-15.932-4.0852-0.46906-7.9735 0.83592-10.898 3.2978-8.8862-6.4013-17.868-12.406-26.663-16.652l-52.048-36.199a8.1425 8.1425 0 0 0 0.23023 -0.90936 8.1425 8.1425 0 0 0 -6.5226 -9.4896 8.1425 8.1425 0 0 0 -9.4896 6.5226 8.1425 8.1425 0 0 0 6.5206 9.4893 8.1425 8.1425 0 0 0 6.4314 -1.5479l38.247 26.599c-0.32687-0.0509-0.65502-0.0963-0.98086-0.13819-6.9328-0.89103-13.607 0.14389-19.577 4.0904-9.9748 6.5945-13.097 19.203-12.839 33.241 0.25866 14.037 3.8404 30.109 8.4384 45.437 9.1961 30.655 22.601 58.348 22.601 58.348a3.7156 3.7156 0 1 0 6.69 -3.2346s-13.195-27.317-22.173-57.247c-4.4892-14.965-7.8902-30.579-8.1272-43.439-0.23697-12.86 2.6304-22.36 9.5084-26.907 7.7447-5.1202 17.279-3.7954 28.776 1.5563 8.4221 3.9204 17.524 9.9744 26.711 16.579-0.37349 1.0309-0.63842 2.1186-0.76876 3.2539-0.90422 7.8751 4.7768 15.028 12.652 15.932 3.8376 0.44064 7.4998-0.68445 10.355-2.8629 8.256 5.9565 16.294 11.338 23.883 14.906 0.39528 0.18585 0.78819 0.35454 1.1815 0.53082l53.259 37.042a8.1425 8.1425 0 0 0 -0.22808 0.90765 8.1425 8.1425 0 0 0 6.5204 9.4913 8.1425 8.1425 0 0 0 9.4896 -6.5226 8.1425 8.1425 0 0 0 -6.5206 -9.4894 8.1425 8.1425 0 0 0 -6.4314 1.5479l-42.019-29.224c0.37842 0.0136 0.75725 0.0222 1.1342 0.0182 5.3025-0.0566 10.455-2.1477 14.346-6.4546 7.7725-8.6052 10.568-21.149 10.907-34.827 0.33953-13.678-1.8431-28.685-4.8631-42.691-6.0401-28.012-15.523-52.105-15.523-52.105a3.7156 3.7156 0 0 0 -3.0666 -2.3829zm-49.489 96.547c6.2465 0.71722 10.7 6.3259 9.9826 12.572-0.71722 6.2465-6.3259 10.7-12.572 9.9826-6.2464-0.71722-10.702-6.3261-9.9845-12.573s6.3278-10.7 12.574-9.9824z" fill="#555"/>
 </g>
</svg>
