<?xml version="1.0" encoding="UTF-8"?>
<!DOCTYPE svg PUBLIC "-//W3C//DTD SVG 1.1//EN" "http://www.w3.org/Graphics/SVG/1.1/DTD/svg11.dtd">
<!-- Creator: CorelDRAW SE -->
<svg xmlns="http://www.w3.org/2000/svg" xml:space="preserve" width="617.405mm" height="717.334mm" version="1.1" style="shape-rendering:geometricPrecision; text-rendering:geometricPrecision; image-rendering:optimizeQuality; fill-rule:evenodd; clip-rule:evenodd"
viewBox="0 0 39094 45422"
 xmlns:xlink="http://www.w3.org/1999/xlink">
 <defs>
  <style type="text/css">
   <![CDATA[
    .fil0 {fill:#1A1A1A}
   ]]>
  </style>
 </defs>
 <g id="Vrstva_x0020_1">
  <metadata id="CorelCorpID_0Corel-Layer"/>
  <g id="_2042777784">
   <path class="fil0" d="M28430 7061c-157,185 -228,371 -338,597 -5,10 -58,118 -60,121 -7,12 -16,29 -22,40l-47 81c-169,-62 -180,-50 -303,-216 76,-147 146,-552 67,-721 -170,91 -140,265 -164,461 -45,372 -35,269 -363,222 -159,-1271 321,-2224 1003,-2871 46,-43 142,-158 195,-216 150,-162 262,-317 486,-404 419,-163 986,-104 1226,353 534,1015 -906,2688 -1586,3473 -635,734 -135,-679 -94,-920zm-2822 1655l-174 349c-780,-91 -1656,-585 -2246,-926 -388,-225 -600,-358 -689,-920 -85,-537 76,-917 361,-1201 687,-684 1486,-538 2411,-211 841,297 1253,882 1421,1857l-572 140c-284,-774 -732,-822 -347,-321 105,137 258,337 231,504l-335 494c-295,-151 -279,-331 -600,-434 99,276 378,411 539,669zm3060 -129c709,-277 1958,-499 2645,-174 250,118 778,450 906,628 272,377 59,960 -177,1220 -646,709 -1284,702 -2302,384 -863,-269 -512,-65 -629,-925 -68,-497 -304,-768 -443,-1133zm-17633 827l-302 290c-318,-181 -861,-1262 -959,-1752 -200,-997 -89,-1432 582,-1913 1291,-924 1906,997 1732,2548 -20,185 -59,405 -178,545l-235 -5 -213 -838c-240,84 -193,105 -106,394 193,646 72,472 -34,528 -415,194 -57,-442 -513,-254l226 457zm17630 178c122,640 -85,2017 -1135,2222 -451,89 -969,-188 -1218,-396 -336,-281 -450,-644 -516,-1193 -82,-681 -35,-908 231,-1388 224,-404 380,-751 955,-767 312,-10 279,108 586,130 262,19 375,81 535,252 213,226 492,777 562,1140zm-14840 -376l-440 557 -382 -299c101,-277 384,-589 327,-834 -251,76 -345,371 -464,734 -359,-55 -423,-52 -339,-375 185,-715 953,-2096 1714,-2433 387,-170 964,-215 1406,-68 1346,447 -264,3198 -1743,3569 -288,72 -46,123 -309,24 -178,-403 258,-362 230,-875zm-1866 -7458c1247,2 4230,1568 5049,2739 264,378 508,791 641,1300 223,849 177,821 -222,1425 -436,661 -907,1997 -846,3030 -556,-97 -748,-288 -1460,-291 62,-106 14,-38 88,-120 411,-455 1175,-1019 1334,-2023 161,-1014 -705,-1834 -1634,-1843 -477,-5 -491,225 -934,-866 -401,-989 -478,-1442 -1148,-2376 -258,-361 -716,-708 -868,-975zm-1861 9787c-424,-131 -1518,183 -2601,-538 -765,-510 -1287,-959 -966,-2141 348,-1281 2264,-662 3278,298 209,198 620,692 684,954l-119 175c-309,-65 -605,-406 -804,-290 64,222 287,234 699,459l-97 317c-303,-87 -799,-402 -1003,-188 68,63 810,334 942,391l-13 563zm15276 -1836c-53,165 96,73 -429,281 -154,61 -366,114 -478,190 114,339 217,-110 923,-125l52 418 -774 396c190,99 511,-130 766,-174l151 235c63,174 69,114 10,282 -5,15 -408,565 -670,1218l-138 269c-386,-337 -842,-632 -1633,-543 -592,67 -1077,-483 -829,-1197 284,-819 1285,-1128 2093,-1277 158,-29 353,-80 497,-90l338 46c112,47 54,15 121,71zm6117 -1579c191,-326 365,-315 570,-553l1221 -1541c96,-136 135,-245 284,-346 -36,347 -155,495 -178,847l-216 2729c241,6 224,-61 264,-302 135,-825 89,-2189 309,-2928 83,-281 95,-447 238,-708 42,-78 30,-61 70,-113 63,-84 22,-43 97,-105 38,663 53,1380 115,2014 211,2160 527,2338 -395,4430l-321 802c-841,-280 -1552,-175 -2294,118l-366 -636c-134,-233 -369,-417 -470,-611 485,11 1082,138 1475,-116 270,-174 692,-607 826,-934 416,-1014 -642,-1702 -1229,-2047zm-17822 3461c124,1583 -1892,2019 -2831,834 -595,-752 -287,-1880 290,-2498 372,-398 525,-467 1126,-276 1078,343 1313,638 1415,1940zm8823 823c-629,828 -839,992 -1269,2073 -110,275 -157,632 -317,866 -7,-12 -14,-19 -16,-40 -47,-551 -439,-1993 -702,-2418 -458,-739 -1388,-1186 -2114,-945 -140,-726 -597,-1332 -1241,-1526 375,-1207 151,-1250 892,-2715 512,-1012 1545,-2299 2302,-3113l920 -903c299,-325 621,-541 1002,-822 369,-273 696,-549 1071,-744 -61,184 -1405,1805 -1693,2293 -232,394 -1192,2478 -1011,2932 328,-27 153,-67 321,-722 69,-270 196,-567 286,-836 172,-511 462,-1089 729,-1509 268,-421 1663,-2307 1968,-2461 -376,1547 -954,1384 -624,3503 -894,266 -1196,1480 -681,2390 473,839 1979,1285 2195,1486 -1013,342 -1587,232 -2299,989 -521,553 -527,1118 -94,1718 83,114 92,123 184,227l191 277zm5394 -196c748,-244 407,-297 812,-424 98,200 175,340 437,390 -44,-276 -225,-264 -368,-593 79,-284 191,-404 273,-741 377,86 1290,596 1536,1072 392,762 264,1412 -95,2066 -196,356 -325,479 -874,449 -1575,-85 -1574,-1570 -1721,-2219zm-13683 -349c344,8 528,222 770,75 -58,-178 -14,-73 -521,-236 -411,-133 -326,-37 -349,-511 827,8 961,137 1021,-135 -316,-200 -1075,146 -1089,-250 -4,-132 -17,-77 53,-154 24,-27 281,-146 323,-159 263,-82 544,-87 852,-85 958,6 2334,316 2321,1472 -5,427 -91,445 -277,689 -83,109 -113,153 -175,295 -79,183 -53,184 -156,322 -232,89 -1399,247 -1711,225 -502,-37 -1257,-96 -1593,-339 81,-203 176,-254 298,-537 45,-104 69,-147 110,-300l123 -372zm11730 -302c300,111 184,141 421,282 -17,226 -115,610 -38,769 171,-152 89,-330 235,-567 310,43 457,206 877,247 64,663 -95,1221 -375,1673 -338,548 -725,662 -1454,462 -353,-96 -344,-304 -378,-721 -36,-435 -202,-455 -31,-769 138,-252 230,-414 355,-704 120,-276 257,-450 388,-672zm-15713 412c-37,283 114,33 -335,410 -145,121 -327,218 -422,319 289,269 546,-553 930,-352 228,216 -298,573 -563,855 205,123 537,-402 845,-501l249 169c-20,435 -212,411 -278,484 -192,215 51,-131 -41,76l-508 808c-341,455 -2033,1554 -2590,804 -217,-291 -310,-813 -202,-1230 132,-513 371,-610 727,-876 577,-434 965,-993 2188,-966zm6995 3626c-539,-189 -557,-365 -1293,-230 -455,84 -988,144 -1437,220 -96,-1133 -4,-1150 -457,-2008 1241,268 1575,267 2893,107 27,1343 247,1406 294,1911zm-15864 -57c9,-16 21,-22 27,-48 47,-222 2082,-1457 2211,-1533 858,-504 2141,-444 3087,-101 112,82 116,886 554,1347 257,270 720,599 1286,502 397,-69 1037,-384 1314,-562 413,-265 655,-602 956,-970 47,664 156,915 376,1407 -72,47 -8,14 -134,65l-416 112c-462,89 -1186,440 -1531,702 -818,623 -1141,1343 -1405,1545 -470,-193 -772,-714 -1469,-708 -1037,9 -185,443 -1717,-170 -517,-206 -998,-438 -1485,-693l-1164 -483c-98,-27 -154,-34 -227,-67l-186 -133c943,-344 1545,-457 2664,-376 333,25 652,206 864,89 -49,-201 -167,-222 -729,-300 -561,-79 -1456,-57 -2003,88 -171,45 -865,268 -873,287zm7210 1339c-76,-389 -613,-422 -1278,-783 -176,-95 -1372,-619 -1496,-494 -170,171 392,293 527,336 1055,336 1497,783 2247,941zm5510 -1131c-221,101 -444,316 -582,469 -84,93 -156,193 -217,311 -31,58 -43,94 -77,161 -57,115 -36,93 -109,192 -617,-344 -888,-146 -1523,-1313 -344,-631 -454,-1862 -6,-2280 308,129 89,90 237,172 178,98 42,7 351,14 5,218 -15,221 1,461 6,98 1,174 26,268 67,252 -34,108 149,208 90,-155 -53,-477 7,-762 25,-122 6,-67 52,-141 396,44 199,204 412,522 153,-156 51,-312 -19,-506 78,-54 0,-14 136,-68 28,-11 143,-47 182,-60 142,-46 183,-67 289,-108 313,290 444,560 536,1065 158,869 -56,1097 155,1395zm5597 833l-1134 658 -573 -1069c-1797,-3686 1292,-5257 2089,-2609 290,964 472,1835 450,2969l-677 33 -248 -1355c-48,-274 52,-252 -113,-409 -173,297 101,1410 206,1782zm2738 -145c-128,214 -321,480 -416,746 -188,-53 -362,-176 -503,-307 66,-526 351,-654 243,-867 -231,29 -155,49 -241,324 -58,185 -111,301 -168,430l-305 -117c126,-970 1089,-3619 1856,-3930l339 -126c54,-29 -37,-31 167,-74 927,-193 2077,995 758,3118 -365,590 -328,649 -777,1166 -196,227 -763,812 -983,946 -86,-104 -63,-110 -129,-215 -93,-150 -83,-80 -163,-243 99,-198 422,-665 322,-851zm15634 1398c-1487,-57 -2102,-68 -3139,616 -143,-176 -619,-1135 -1317,-1002 -320,61 -602,267 -787,439 -165,152 -432,540 -600,636 -7,-559 -88,-894 -302,-1292 -85,-159 -221,-307 -339,-421l-447 -405c350,-697 1024,-1137 1675,-1476 372,-195 790,-268 1226,-363 1414,-309 3662,1875 4351,3083 9,17 62,113 65,118 89,180 16,-4 78,183 -129,-50 -106,-77 -236,-214 -212,-223 -474,-378 -735,-552 -865,-574 -1522,-705 -2404,-1064 -432,-175 -1160,-76 -1280,226 269,148 688,-196 1227,-3 901,323 1956,703 2727,1273l237 218zm-17369 2998l-594 -356c-521,-239 -1228,-316 -1593,-1300 -259,-698 -87,-925 230,-1429 272,-433 579,-572 1215,-746 1020,-279 2147,220 2173,1401 14,609 -100,1114 -326,1573 -275,557 -531,607 -1105,857zm8021 -1519c-16,-7 -41,1 -51,-21 -64,-153 14,4 -98,-41l-389 -148c-183,-78 -330,-156 -482,-233 187,-339 315,-988 171,-1472 -261,-883 -1717,-950 -2615,-774 -791,154 -1056,354 -1387,428 70,-193 236,-332 370,-572 476,-844 402,-520 793,-1558l136 -289c8,-12 22,-30 29,-40 7,-10 19,-28 30,-41 337,164 249,227 737,340 864,202 1335,-144 1698,-867 86,-170 96,-273 242,-408 283,461 857,1058 1561,1197 1116,220 1346,-137 1669,-960 69,-176 110,-302 135,-510 37,-309 -9,-338 246,-472 725,-382 1603,-244 2338,-41l887 501c9,10 24,27 34,41 -1019,-53 -930,-361 -2045,-40 -239,69 -449,72 -417,344 745,-199 952,-243 1790,-155 386,40 1498,241 1698,461 -1504,34 -3195,74 -4290,1179 -260,262 -691,683 -858,1019 -1058,-58 -1582,-39 -1944,817 -381,898 -337,1493 12,2315zm-10363 291c-787,-141 -2512,277 -3607,-244 -478,-228 -912,-452 -1142,-867 -475,-859 108,-2275 1234,-2548 295,-71 1501,-292 1792,-246 798,127 1177,1056 1487,1583 182,310 225,305 171,459l-121 218c-543,-155 -807,-550 -1042,-431 107,205 645,442 939,623 20,1377 6,599 289,1453zm4975 -192l-754 -1 73 -651c287,-40 417,-45 529,-308 -158,43 -759,195 -581,-195 54,-118 463,-278 592,-363 1055,-701 4030,-1526 4256,-408 369,1825 -1935,2315 -3270,2414 -786,58 -702,-67 -1243,-67 -229,1 -342,37 -481,-77 51,-308 2,-138 421,-132 220,3 374,-41 458,-212zm6590 -540c-34,161 155,972 212,1148 -391,31 -517,-1 -893,-518 -792,-1086 -257,-2780 643,-2910 1047,-150 1574,308 1791,1137 251,960 -235,1973 -364,2582 -224,-43 -273,-99 -501,-141 2,-171 8,-369 4,-538 -7,-270 51,-264 -177,-325 -69,135 -3,597 4,806l-429 -69c17,-273 2,-1016 -290,-1172zm-21218 1122c-9,-13 -20,-18 -23,-40l-294 -831c-132,-366 -315,-419 -423,-810 309,-146 689,-852 1439,-1446 418,-331 1400,-788 2081,-832 85,152 440,563 590,704 267,252 653,320 898,489 -83,1188 125,1603 1261,2226 912,501 1645,636 2955,589 -146,281 -848,459 -1187,952l-829 1380 -517 -102c-123,-318 -59,-369 -323,-679 -1048,-1229 -1288,-726 -2408,-654 233,-617 614,-921 361,-1888 -187,-715 -1598,-2105 -2738,-631 -666,861 -635,1269 -843,1573zm18816 -849c601,243 1563,567 1839,1023 -185,224 -325,178 -458,494 -339,-60 -659,-386 -891,-247 165,174 479,264 688,397 -15,285 -133,272 -229,584 -54,176 -119,536 -127,771 -616,73 -2570,23 -2543,-1056 34,-1340 703,-1219 1193,-1538 208,-136 284,-288 528,-428zm5321 1349c-289,31 -451,411 -562,395l-20 -76c9,-146 37,-148 189,-304 114,-117 229,-209 226,-437 -98,107 -458,506 -591,544l-87 6c-474,44 159,-793 213,-877 318,-501 476,-1215 1165,-1666 360,-237 729,-307 990,70 746,1080 198,2895 -1811,3383l-170 -480c305,-337 452,-324 458,-558zm-22366 202l-499 619c-259,-45 -240,-43 -414,-206 59,-290 378,-535 184,-799 -149,132 -255,491 -304,723 -174,-36 -271,-71 -414,-125 -65,-289 136,-742 243,-1047 176,-506 737,-1446 1228,-1616 364,-126 741,-17 1033,212 769,603 345,2094 -696,2787 -649,432 -451,543 -793,297 114,-412 366,-291 432,-845zm-3521 843c-220,187 -122,235 -355,475l-71 63c-2784,-1274 -1986,-4646 120,-4351 636,90 1315,1117 1498,1712 134,434 231,849 343,1280 -349,10 -550,116 -844,177l-471 -1029c-93,-198 -58,-209 -276,-210 49,234 455,816 585,1367 -196,122 -230,257 -487,318 -191,-220 -459,-824 -675,-907 -37,274 498,831 633,1105zm21842 570c161,-853 622,-1795 1655,-1651 338,48 970,235 1250,408 413,254 430,743 286,1229 -213,719 -766,1653 -1643,1688 -452,17 -1048,-192 -1281,-393 -354,-306 -368,-750 -267,-1281zm-4772 1032c-264,-1553 -1214,-2556 -1348,-2874 567,-20 975,91 1494,62 238,-14 454,-27 703,-49 289,-25 391,-119 660,-176 -53,577 -239,1017 75,1508 228,357 546,651 1034,793 -169,136 -376,172 -595,292 -182,100 -398,335 -509,378 -177,69 -412,-80 -692,-44 -305,40 -476,91 -822,110zm-5728 -2267c267,134 400,-398 814,-467 287,457 -88,302 -286,877 203,-61 494,-501 617,-649 294,104 444,168 612,415 -9,5 -28,11 -32,1l-68 3c-8,1 -28,1 -37,3 -8,2 -28,4 -37,7 -136,47 -344,529 -519,820 -363,609 -954,1312 -1607,1693 -933,545 -771,322 -1229,295l-117 231c-638,-111 -1089,-665 -870,-1385 148,-484 616,-1122 886,-1532 311,-472 2190,-1543 2376,-993 96,285 -393,462 -503,681zm-11552 2058c153,-467 340,-910 639,-1205 807,-799 1204,-617 1918,-336 715,281 1051,1048 904,1854 -554,3033 -4117,1690 -3461,-313zm22382 941c-255,605 -864,1115 -1610,1361 -2459,811 -3169,-918 -1185,-2142 396,-244 1264,-396 1759,-435 322,-25 254,27 316,338 -121,57 -700,318 -572,447 96,73 62,7 276,-95l450 -149 -169 197c-223,199 -237,87 -394,409l709 -418c125,251 266,293 420,487zm-8486 -2503c320,288 -45,489 294,612 122,-185 27,-427 4,-642 87,-59 432,-173 550,-195 112,365 109,808 445,905 -69,-380 -249,-708 -270,-1160 251,-159 326,-228 506,-482 420,279 1096,1594 1293,2236 295,963 -52,2217 -621,2665 -1086,853 -2536,-855 -2530,-2377 1,-459 -53,-1411 329,-1562zm-8777 1033c-237,-140 -814,125 -1233,129 -60,-262 -253,-443 528,-797 371,-168 629,-314 1046,-371 353,-48 942,-203 1230,-114 271,84 666,425 732,701 74,310 -193,897 -333,1053 -177,196 -577,408 -888,530 -924,361 -1279,456 -2341,306 19,-252 65,-411 83,-621 29,-321 -68,-428 146,-508 404,-150 938,-19 1030,-308zm-5335 1822l-251 104c-1329,584 -3620,1430 -4090,-651 -110,-488 170,-916 400,-1159 223,-236 735,-385 1110,-483 615,-161 1524,-93 2168,138 360,129 159,70 433,226 11,6 29,15 39,21l-27 414c-206,-24 -849,-179 -939,-138 101,218 545,210 829,279 29,550 83,885 328,1249zm25990 -2061c360,149 565,381 834,578 895,656 1098,1979 490,3040 -476,830 -1651,955 -2139,-161 -90,-206 -80,-366 -156,-550 -116,-283 -381,-604 -466,-904 48,-50 35,-36 107,-94 41,-32 61,-47 104,-77 163,-111 71,-65 251,-145 125,241 278,597 566,660 -55,-231 -335,-498 -456,-806l277 -293c161,98 323,277 570,303l-425 -394c48,-276 202,-477 334,-896l109 -261zm-2058 2085c244,20 158,-123 373,374 321,743 446,554 248,1506 -461,2208 -1607,1558 -1967,847 -317,-627 -60,-1489 232,-2095 214,-443 297,-696 594,-716 -41,173 -134,508 -9,675 251,-75 34,-202 257,-461l68 579c207,-144 100,-289 147,-552 26,-146 3,-74 57,-157zm-20086 71c579,165 1322,897 1649,1292 765,920 380,2786 -1190,2490 -326,-61 -259,-106 -436,-283 -162,-162 -233,-126 -288,-145 -563,-193 -694,-1772 -721,-2331l206 -114c94,-45 99,-42 168,-71 109,187 164,447 254,643 223,492 105,477 334,537 104,-178 -250,-810 -329,-1089 -132,-464 -61,-250 353,-929zm-1473 1109c41,944 -311,1916 -800,2368 -402,372 -1314,1223 -2190,756 -369,-196 -571,-428 -701,-896 -306,-1105 1030,-2749 1612,-2992l358 329c-117,99 -449,610 -403,681 156,161 174,-248 528,-639l397 188c-1,375 -164,546 -236,887 247,-88 323,-405 447,-767l988 85zm26118 185c-189,199 -71,201 120,338 528,379 1775,1954 1861,2290 -369,-154 -378,-445 -1388,-992l-1575 -790c484,-872 739,-1171 569,-2453 998,332 2502,2860 2502,3870 -264,-211 -1533,-2067 -2089,-2263zm-16085 2844c-161,164 -261,-342 -1270,-529 -1105,-205 -2041,-102 -3398,-260 -773,-90 -982,-303 -1454,-363 152,-1084 -106,-1630 -900,-2349 -194,-176 -498,-415 -600,-598 773,47 2115,-358 2754,-888 272,-225 228,-224 373,-498l155 -218c156,90 253,59 463,58 18,854 803,1451 1386,1603 474,124 393,-192 746,143 484,460 1158,1895 1301,2760 -308,-149 -414,-570 -2212,-1431 -324,-155 -2326,-1000 -2603,-811 49,252 376,247 665,325 1210,327 2723,993 3656,1815 169,149 119,120 246,292l593 820c6,10 16,25 23,35l50 64c4,6 23,17 26,30zm4649 -3181c7,-8 29,-43 35,-32 5,10 24,-22 36,-32 197,278 296,215 469,652 233,585 345,2399 336,3003 -527,-292 -1967,-1553 -2545,-1914 -444,-278 -893,-590 -1475,-755 -1083,-305 -1343,-8 -1880,117 -188,-649 -524,-1067 -839,-1583 -143,-234 -238,-268 -336,-476 1582,-604 2106,-1873 2482,-2198 4,883 -106,977 190,1819 194,553 518,922 833,1276 230,257 844,732 1340,756 623,30 929,-168 1290,-568l64 -65zm6713 2758c-84,744 -530,2920 -668,3692 -222,1246 -493,2385 -707,3654 -202,1203 -455,2469 -681,3666 -141,749 -434,2024 -514,2714 -133,1147 286,721 -2382,753 -1308,16 -2076,-159 -3063,-208 -345,-17 -706,12 -1053,11 -776,-1 -1284,22 -2003,80 -704,56 -1312,-96 -2037,24 -645,106 -1438,11 -2073,-25 -368,-22 -763,13 -1115,-13 -298,-22 -574,-120 -887,-145 -634,-51 -1445,29 -2132,-5 -75,-1557 -505,-4526 -793,-6093 -86,-468 -94,-1056 -195,-1512 -53,-235 -125,-485 -165,-723l-302 -2227c-185,-1054 144,-775 -185,-1414 355,-293 888,-1348 1113,-1872 441,119 894,229 1387,75 379,-118 731,-350 842,-731 436,34 532,116 896,249 342,125 583,121 949,158 755,75 1178,176 2035,99 303,-28 631,83 917,119 733,92 890,177 1558,701 137,107 430,442 569,322 179,-154 27,-301 -143,-635 -114,-222 -170,-380 -277,-606 -151,-321 -410,-996 -445,-1359 414,-113 384,-282 1076,-283 1178,-1 1852,689 2681,1273l2225 1718c202,201 353,591 706,526 22,-401 -454,-483 -533,-1141 -140,-1162 57,-3378 -1152,-3873 153,-514 294,-682 299,-1318l983 -143c-136,603 -433,604 -123,1424 321,850 1630,1019 2521,800 881,-217 852,-346 1221,-490 -117,903 -226,1181 209,1911 220,370 828,881 1441,847zm-20303 63c-170,742 -930,1663 -1389,2202 -1652,1938 -1036,1644 -1370,2152l-57 -229c-19,-323 143,-1372 201,-1670 206,-1061 840,-1104 677,-1310 -1,-1 -33,-210 -306,79 -686,726 -739,1766 -748,2740 -216,-99 -772,-1002 -880,-1261 -213,-513 -356,-1255 -17,-1705 234,-189 755,367 1950,-583 967,-769 784,-997 1120,-1527 59,57 80,72 139,161 42,64 46,79 83,156 75,155 69,169 161,304 133,197 275,356 436,491zm18357 12833c56,24 965,193 1432,371 1103,420 1442,1249 787,2197 -910,1317 -2699,1266 -4107,1250 -1100,-12 -6208,251 -6926,179 -2130,-213 -4718,39 -6949,-171 -542,-50 -979,-150 -1592,-175 -552,-24 -956,-203 -1526,-234 -682,-37 -2523,-336 -1883,-1477 244,-435 426,-767 752,-1077 230,-220 781,-497 1144,-631 902,-333 885,-630 968,139 48,450 -100,1339 361,1356 114,4 201,-39 418,-38l1238 55c274,-9 512,-74 814,-40 205,23 478,86 753,120 525,65 1208,57 1729,94 479,34 1235,55 1644,-2 568,-80 1038,-11 1646,-11 600,1 1082,-79 1705,-70 1115,15 2438,-19 3463,152 944,157 2262,6 3358,59 311,-164 -52,-100 226,-146 7,-1 215,19 285,16l260 -1916zm-18040 -573c-349,29 -1466,545 -1806,725 -504,267 -900,774 -1186,1334 -193,380 -310,443 -199,983 208,1014 1357,1330 2345,1414 788,67 1344,241 2240,279 415,18 719,127 1120,158 397,31 787,48 1171,53 1651,21 3334,1 4940,72 1369,61 3597,56 4849,-77 1593,-170 3414,96 4962,-113 434,-59 968,-338 1333,-588 110,-75 266,-133 367,-220 435,-378 832,-1051 820,-1690 -11,-588 -447,-1254 -867,-1643 -204,-189 -1495,-551 -1895,-582 22,-559 159,-1110 288,-1609 200,-771 190,-1384 443,-2372 65,-254 70,-560 125,-823 323,-1541 565,-3099 898,-4626 172,-788 234,-1649 417,-2405 96,-391 102,-330 64,-713 612,-328 595,-1252 830,-1806 381,295 268,408 885,646 200,77 377,106 654,101 342,-7 329,-81 586,-111 199,85 96,83 258,153 104,43 206,56 317,102 178,73 368,157 525,239 639,335 1396,697 1916,1203 145,140 891,1034 920,316 62,-1516 -1023,-3392 -2014,-4395l-933 -773c-102,-66 -100,-54 -190,-87 -178,-66 191,76 -90,-32 -11,-4 -38,-35 -46,-22 0,2 -447,-631 -662,-813 -131,-111 -251,-190 -396,-309 -268,-221 -258,-131 -348,-421 369,-76 656,-188 925,-381 197,-143 517,-443 673,-620 482,-545 582,-1012 536,-1990 725,-480 836,-515 1903,-638 576,-66 1185,3 1687,196 442,171 375,79 421,34 157,-222 -432,-1032 -566,-1240 -1007,-1561 -2778,-2541 -2978,-2823 418,5 522,-32 902,74 147,41 635,154 766,0 205,-240 -532,-521 -646,-577l-2591 -1463c110,-308 264,-605 404,-903 786,-1668 537,-2554 313,-4293 -47,-365 -31,-868 -69,-1231 -130,-1254 538,-2476 -231,-2626 -92,106 -239,466 -345,635l-1122 1700c-414,558 -1407,1599 -1638,2189 -351,-62 -416,-122 -894,-133 -317,-7 -650,17 -975,19 73,-395 808,-954 1167,-1930 337,-915 -126,-1637 -654,-2031 -924,-690 -1521,-26 -2013,471 -480,485 -888,1052 -1096,1899 -217,-226 -228,-639 -281,-931 -169,-929 -527,-3330 217,-4009 173,-157 597,-265 840,-98 433,296 495,1526 -218,1564 -95,-136 -150,-328 -285,-314 -42,73 -86,-132 -53,182 32,310 470,444 689,287 291,-209 431,-564 412,-1046 -35,-901 -1009,-1342 -1593,-665 -717,833 -409,2670 -260,3784 64,476 195,790 244,1256l-203 -137c-814,-758 -1744,-1147 -2949,-988 -18,-556 -34,-662 45,-1201 62,-429 506,-1653 729,-1984 206,-305 421,-561 412,-937l-349 -170c-173,99 -203,158 -421,276 -172,92 -287,148 -453,249 -1122,689 -2217,1399 -3106,2360 -229,249 -445,430 -672,680l-952 1106c-132,143 -202,259 -351,336 60,-1437 943,-2827 575,-4768 -128,-681 -835,-1518 -1422,-822 -862,1023 -53,2010 503,1497 27,-24 78,-100 86,-128 51,-193 13,-15 -25,-93 -135,-141 -222,55 -347,130 -800,-254 -304,-1126 117,-1395 368,-10 501,5 665,245 108,158 203,396 248,638 193,1039 -39,2124 -277,3127 -97,408 -297,1025 -316,1397 -108,-108 -180,-360 -259,-567 -311,-812 -962,-1375 -1631,-1889 -705,-543 -1939,-1124 -2783,-1442 -375,-142 -1920,-553 -2262,-399 25,219 1208,1108 1712,2060 225,426 373,861 553,1334 193,507 380,893 591,1287l-800 737c-262,250 -398,576 -615,851l-86 -216c-116,-483 -238,-840 -512,-1252 -641,-965 -1902,-1017 -2494,79 -425,787 -187,849 -129,1635 -187,-111 -92,-13 -208,-233 -299,-566 -827,-1157 -1229,-1650 -513,-628 -785,-1293 -1880,-1394 -1060,-97 -1318,1154 -762,1803 238,279 612,577 1065,226 356,-275 190,-939 -203,-918 11,297 184,148 201,567 -509,728 -1352,-126 -1067,-1000 127,-390 547,-522 927,-457 636,109 926,356 1258,816 91,125 175,298 282,422 533,620 1366,1853 1483,1985 142,160 199,167 276,426 -245,-67 -285,-133 -489,-270 -681,-457 -1914,-651 -2594,-142 -238,177 -322,612 -373,960 -205,1374 1187,2294 2281,2739l221 107 -264 233c-551,471 -1193,756 -1449,1537 -685,-193 -1223,-482 -2077,-470 -989,13 -1848,675 -2629,1133l-2106 1566c77,592 657,319 1268,351 934,50 2371,932 3347,1350 65,28 95,28 167,75 97,63 46,36 107,105 -54,84 -30,53 -87,124l-227 296c-983,1814 403,2888 646,3416 -1183,-31 -1518,-118 -2536,298 -626,255 -1230,996 -986,1737 401,1221 1328,1847 2567,1821 608,-13 758,-187 1182,-236 -280,650 -754,907 -762,1894 -6,878 402,1180 897,1705 -160,646 -269,795 -57,1510 102,345 432,921 616,1204 246,378 484,720 748,1073 190,254 450,930 801,932 156,-207 -26,-482 40,-888 100,-620 739,-1655 1239,-1894 53,903 146,1647 276,2503l552 3496c44,429 92,795 151,1217 109,779 223,1608 333,2393z"/>
   <path class="fil0" d="M20495 10428c-8,11 -17,43 -19,36l-21 362c40,475 378,1510 453,2067 39,288 -62,663 57,911 352,-331 94,-1292 -9,-1742 -58,-252 -158,-548 -234,-823 -146,-538 15,-705 -227,-811z"/>
   <path class="fil0" d="M23611 32724c-240,11 -112,20 -415,616 -130,256 -259,421 -400,660 -261,442 -779,1054 -711,1273 244,-18 137,14 269,-239 176,-341 1446,-1990 1257,-2310z"/>
   <path class="fil0" d="M11792 30324l-610 1176c-171,302 -555,840 -649,1114 291,63 197,7 434,-439 214,-401 1111,-1539 825,-1851z"/>
   <path class="fil0" d="M11557 29561c-173,117 -435,715 -579,967 -185,323 -538,835 -483,1063 216,-84 799,-1243 959,-1515 117,-200 262,-329 103,-515z"/>
   <path class="fil0" d="M23258 34202l-1047 1630c-100,214 -83,139 3,250 152,-31 31,100 160,-140 387,-720 1195,-1499 884,-1740z"/>
   <path class="fil0" d="M18771 7029c-249,167 -1048,1608 -805,1972 191,-79 55,94 143,-212l278 -832c218,-542 542,-686 384,-928z"/>
   <path class="fil0" d="M20259 17638c-15,-170 -33,-188 -156,-237 -637,-252 -1298,1000 -1078,1343 165,-118 205,-574 391,-820 267,-354 324,-371 843,-286z"/>
   <path class="fil0" d="M11872 10121c-233,-314 -656,246 -758,437 -128,240 -445,948 -38,1021 12,-434 137,-977 461,-1245 182,-151 203,-32 335,-213z"/>
   <path class="fil0" d="M11778 31958l-967 1784c261,123 261,-166 636,-791 90,-151 192,-287 261,-444 207,-466 152,-440 70,-549z"/>
   <path class="fil0" d="M17950 38081l-1542 1029 92 165 1264 -840c151,-105 324,-159 186,-354z"/>
   <path class="fil0" d="M8372 21820c-655,-238 -1356,1136 -1166,1452 393,-349 42,-869 1016,-1315 143,-65 93,3 150,-137z"/>
   <path class="fil0" d="M27075 8769c160,263 295,76 571,554 157,271 170,649 317,843 165,-129 106,-162 38,-441 -97,-392 -190,-566 -466,-822 -61,-56 -126,-119 -203,-150 -86,-35 -39,-32 -131,-29 -121,4 -67,11 -126,45z"/>
   <path class="fil0" d="M23219 43542c57,-389 -580,-216 -1135,-171 -285,23 -265,-3 -267,208l1402 -37z"/>
   <path class="fil0" d="M28021 30835c-111,39 -78,-177 -193,372 -36,172 -74,293 -106,480 -38,231 -157,786 -53,990 120,-151 176,-674 204,-923 35,-311 228,-777 148,-919z"/>
   <path class="fil0" d="M11967 33185c-35,36 -649,1501 -671,1599 203,1 207,-88 274,-236 187,-409 528,-1085 397,-1363z"/>
   <path class="fil0" d="M28668 31659c-160,100 -129,129 -205,643 -47,317 -196,542 -30,691 138,-158 188,-434 218,-643 19,-135 59,-266 89,-393 60,-261 66,-200 -72,-298z"/>
   <path class="fil0" d="M17986 37564c-143,1 -634,340 -872,460 -177,89 -174,47 -215,274 262,-26 713,-345 956,-485 152,-88 173,-40 131,-249z"/>
   <path class="fil0" d="M20179 18000c-411,-232 -926,682 -743,1107 171,-86 83,-64 142,-315 50,-217 172,-491 341,-605 252,-171 166,66 260,-187z"/>
   <path class="fil0" d="M29727 42138c-339,24 -72,261 -119,608 -32,235 -236,350 -117,585 191,-69 260,-287 284,-517 22,-206 25,-494 -48,-676z"/>
   <path class="fil0" d="M19726 24573c-309,-592 -493,-278 -410,-714l-434 -60c-37,241 -58,135 123,273 379,291 498,486 721,501z"/>
   <path class="fil0" d="M20612 8319c-220,52 -173,177 -203,460 -31,291 -65,460 140,577 47,-152 131,-900 63,-1037z"/>
   <path class="fil0" d="M14850 3373c-98,169 -280,910 -177,1094 122,-38 105,94 151,-171 45,-256 48,-519 174,-856l-148 -67z"/>
   <path class="fil0" d="M20306 18944c-222,11 -305,133 -363,429 -66,341 -31,516 259,568 -249,-634 50,-617 104,-997z"/>
   <path class="fil0" d="M22754 26378c15,241 184,261 305,408 179,215 78,376 405,357 7,-203 -305,-524 -448,-670 -145,-147 -52,-119 -262,-95z"/>
   <path class="fil0" d="M30256 21162c-33,59 -31,27 -48,135 -7,41 1,113 -4,171 -27,352 -193,546 -286,754 334,-27 418,-397 454,-754 32,-310 37,-230 -116,-306z"/>
   <path class="fil0" d="M28139 33672c-103,124 -132,363 -174,553 -54,246 -185,413 -12,566 91,-146 116,-372 171,-566 62,-217 199,-432 15,-553z"/>
   <path class="fil0" d="M23308 35482c-217,75 -256,305 -393,519 -97,152 -322,424 -348,624 218,-64 113,-69 408,-501 124,-180 317,-403 333,-642z"/>
   <path class="fil0" d="M13237 25174c-61,-195 -839,-423 -861,-419 -23,47 -108,-80 -31,106 32,79 0,30 77,82 55,38 204,87 292,124 164,70 339,175 523,107z"/>
   <path class="fil0" d="M15587 5212c163,-39 225,-265 268,-484 46,-232 89,-419 -128,-448l-140 932z"/>
   <path class="fil0" d="M15379 3797c-143,106 -211,548 -265,742l147 142c92,-150 247,-703 118,-884z"/>
   <path class="fil0" d="M27213 9479c8,69 254,902 338,970 97,-179 -6,-923 -338,-970z"/>
   <path class="fil0" d="M30627 21324c-144,202 104,242 155,507 42,220 -56,429 -52,685 339,-353 204,-906 -103,-1192z"/>
   <path class="fil0" d="M17466 39080c-98,21 -804,404 -828,653l728 -403c173,-142 130,-41 100,-250z"/>
   <path class="fil0" d="M11841 10725c-137,-5 -172,-108 -325,350 -16,50 -66,230 -68,287 -9,263 -16,151 109,243 98,-165 24,-260 112,-486 68,-176 143,-204 172,-394z"/>
   <path class="fil0" d="M8940 13159c-232,98 -187,76 -342,236 -405,419 -164,300 -154,321l607 -392c-44,-175 -35,-79 -111,-165z"/>
   <path class="fil0" d="M24416 18294c-90,-154 115,-158 -332,-150 -225,5 -292,-25 -433,73 133,205 511,170 765,77z"/>
   <path class="fil0" d="M16997 18412l892 243c-10,-288 -110,-212 -415,-266 -270,-48 -370,-122 -477,23z"/>
   <path class="fil0" d="M15645 11179c143,145 174,64 429,122 171,38 339,200 333,54 -8,-188 -537,-393 -762,-176z"/>
   <path class="fil0" d="M14827 20197c-339,0 -431,594 -416,707 145,-46 424,-526 416,-707z"/>
   <path class="fil0" d="M17731 9650c-182,106 -118,311 -129,828 152,-80 158,-146 182,-356 24,-208 38,-335 -53,-472z"/>
   <path class="fil0" d="M18613 16081c-191,120 -91,177 6,390 71,157 112,332 188,447 164,-205 -154,-800 -194,-837z"/>
   <path class="fil0" d="M11044 16518c-107,-47 127,-87 -114,-24 -29,7 -391,333 -425,563 208,-20 79,66 342,-237 259,-298 222,-150 197,-302z"/>
   <path class="fil0" d="M10534 25391c-150,204 33,258 161,412 105,127 225,294 313,404 29,-427 -379,-612 -474,-816z"/>
   <path class="fil0" d="M33012 10081c-170,86 -109,89 -167,332 -32,137 -71,188 -96,338 298,-12 359,-459 263,-670z"/>
   <path class="fil0" d="M30336 17732l47 617c35,170 4,99 108,177 86,-180 77,-489 -29,-679 -105,-189 12,-67 -126,-115z"/>
   <path class="fil0" d="M22366 14669c-154,109 -328,408 -341,683 214,-55 161,-70 272,-308 82,-175 130,-230 69,-375z"/>
   <path class="fil0" d="M12407 15413c0,-69 -48,-228 -78,-307 -76,-195 -47,-156 -186,-229 10,292 15,555 178,687 55,-51 86,-47 86,-151z"/>
   <path class="fil0" d="M29344 12687c-109,150 -1,175 133,330 154,179 132,262 250,426 175,-285 -266,-655 -383,-756z"/>
   <path class="fil0" d="M8234 22327c-239,40 -412,310 -435,447 -45,273 40,208 54,229 102,-181 56,-233 201,-391 127,-138 194,-84 180,-285z"/>
   <path class="fil0" d="M14096 7475c-218,119 -350,307 -454,570 240,14 218,-82 323,-221 96,-130 174,-165 131,-349z"/>
   <path class="fil0" d="M15144 20257c-124,117 -319,554 -333,794 127,-108 476,-564 333,-794z"/>
   <path class="fil0" d="M23648 27502c10,183 72,141 185,271 71,83 182,240 214,303 164,-219 -133,-606 -399,-574z"/>
   <path class="fil0" d="M10453 7662c3,324 81,564 336,635 -30,-257 -138,-545 -336,-635z"/>
   <path class="fil0" d="M29785 25344c-69,57 -76,-33 -136,337 -32,197 -62,150 19,306 138,-40 56,51 128,-88 24,-46 28,-142 33,-197 25,-239 22,-251 -44,-358z"/>
   <path class="fil0" d="M11263 16598c-67,105 -133,278 -195,382 -254,425 -47,333 193,-39 230,-358 2,-343 2,-343z"/>
   <path class="fil0" d="M4689 22763c-189,-139 -473,-104 -703,0 63,131 22,136 516,61 161,-24 -38,21 104,-18l83 -43z"/>
   <path class="fil0" d="M15469 12003c57,132 450,241 592,268 -4,-196 -58,-189 -224,-251 -126,-47 -239,-94 -368,-17z"/>
   <path class="fil0" d="M28886 6028c-110,57 -213,169 -279,265 -134,195 -111,298 -56,398 111,-160 341,-469 335,-663z"/>
   <path class="fil0" d="M28418 5432c-188,52 -147,106 -252,302 -73,133 -135,203 -69,364 151,-165 297,-359 321,-666z"/>
   <path class="fil0" d="M16727 17177c-33,-47 -40,-168 -407,-166 -271,2 -63,-22 -168,49 68,114 218,173 407,173 279,1 72,11 168,-56z"/>
   <path class="fil0" d="M12674 22260c-12,-38 39,-176 -354,-137 -187,19 -234,43 -266,201l620 -64z"/>
   <path class="fil0" d="M6471 26312c-162,-106 -208,4 -303,170 -67,119 -130,261 -168,379 174,-29 179,-143 265,-272 81,-122 163,-168 206,-277z"/>
   <path class="fil0" d="M10322 19061c-119,133 -449,489 -235,665 69,-106 92,-217 157,-331 103,-180 172,-139 78,-334z"/>
   <path class="fil0" d="M4933 23645c98,160 -136,76 620,117 -108,-318 -548,-165 -620,-117z"/>
   <path class="fil0" d="M27407 20505c-135,-224 -210,-229 -563,-268 56,255 301,280 563,268z"/>
   <path class="fil0" d="M27772 15087c-118,110 -323,379 -329,610 195,-60 138,-68 249,-256 95,-162 165,-185 80,-354z"/>
   <path class="fil0" d="M33493 19294c-207,80 -343,281 -399,528 149,-54 179,-69 266,-184 83,-109 121,-153 133,-344z"/>
   <path class="fil0" d="M18065 21203c-183,66 -292,243 -416,414 178,129 168,7 288,-118 110,-116 209,-132 128,-296z"/>
   <path class="fil0" d="M29139 42601c-196,64 -290,381 -322,600 152,-32 179,-177 241,-285 68,-118 123,-195 81,-315z"/>
   <path class="fil0" d="M22024 22720c-25,63 -25,526 176,606 7,-18 92,-516 -176,-606z"/>
   <path class="fil0" d="M22993 13851c-215,21 -438,458 -384,514 74,77 170,-108 228,-193 101,-144 151,-155 156,-321z"/>
   <path class="fil0" d="M24043 10862c-146,-135 -160,-76 -337,59 -142,108 -239,147 -317,309 305,-47 415,-297 654,-368z"/>
   <path class="fil0" d="M27138 23644c-80,-25 -402,73 -469,354l489 -219c121,-169 -17,-130 -20,-135z"/>
   <path class="fil0" d="M32550 11245c-213,99 -184,230 -298,645 206,-118 341,-498 298,-645z"/>
   <path class="fil0" d="M18260 13894c-147,222 211,625 281,675l-159 -519c-65,-157 -9,-79 -122,-156z"/>
   <path class="fil0" d="M26081 13197l-164 405c-13,298 -17,58 46,153 174,-74 232,-406 118,-558z"/>
   <path class="fil0" d="M30270 25437c-94,148 -43,464 55,592 123,-90 63,-485 -55,-592z"/>
   <path class="fil0" d="M19378 13555c-111,158 -79,408 37,535 103,-139 118,-423 -37,-535z"/>
   <path class="fil0" d="M24632 6375c35,131 314,440 535,483 -34,-183 -456,-464 -535,-483z"/>
   <path class="fil0" d="M9551 13638c-212,68 -308,220 -401,433 241,-48 350,-188 401,-433z"/>
   <path class="fil0" d="M33047 16648c-199,-124 -488,87 -443,231 56,27 -95,181 216,-74 93,-76 148,-96 227,-157z"/>
   <path class="fil0" d="M20980 22534c-42,55 -87,-85 -64,226 9,120 35,144 71,213 129,-128 197,-509 -7,-439z"/>
   <path class="fil0" d="M18697 21615c-182,60 -366,332 -437,563 161,-100 413,-379 437,-563z"/>
   <path class="fil0" d="M23691 14212c-152,58 -450,368 -315,593 102,-126 71,-136 153,-291 78,-148 134,-171 162,-302z"/>
   <path class="fil0" d="M17305 21957c-157,70 -358,319 -382,493 226,-22 89,16 233,-201 77,-116 129,-127 149,-292z"/>
   <path class="fil0" d="M12940 14508c-35,215 -37,384 137,479 70,-180 43,-407 -137,-479z"/>
   <path class="fil0" d="M22788 15584l-205 330c-53,281 -20,54 29,148 34,-24 181,-83 213,-315 42,-309 13,-68 -37,-163z"/>
   <path class="fil0" d="M24290 19395c-222,-101 -330,-209 -538,-85 92,92 425,218 538,85z"/>
   <path class="fil0" d="M7060 27204c-49,270 -23,50 28,140 116,-118 272,-436 177,-619l-205 479z"/>
   <path class="fil0" d="M14540 8209c-125,97 -351,280 -374,479 93,-74 176,-142 271,-220 126,-105 184,-117 103,-259z"/>
   <path class="fil0" d="M32738 24132c-53,152 107,367 223,498 74,-183 -86,-414 -223,-498z"/>
   <path class="fil0" d="M29784 17770c-85,232 -135,381 60,520 49,-112 17,-414 -60,-520z"/>
   <path class="fil0" d="M11263 6841c-74,188 -7,458 47,624 76,-205 69,-455 -47,-624z"/>
   <path class="fil0" d="M28281 15333c-127,43 -388,360 -318,524 66,-57 293,-433 318,-524z"/>
   <path class="fil0" d="M32426 24866c37,201 71,313 264,336 9,-137 -16,-240 -264,-336z"/>
   <path class="fil0" d="M4475 23881c-30,-20 16,-84 -181,-33 -163,42 -148,85 -195,150 151,83 267,-10 376,-117z"/>
   <path class="fil0" d="M16435 18412c-126,-125 -129,-117 -380,-94 25,49 30,89 114,122 260,102 229,-3 266,-28z"/>
   <path class="fil0" d="M29139 29015c-107,182 -68,130 11,250 213,-55 292,-222 -11,-250z"/>
   <path class="fil0" d="M21142 23651c-17,27 -86,3 -44,214 30,149 49,137 164,200 21,-147 -35,-268 -120,-414z"/>
   <path class="fil0" d="M18375 15185c-63,200 -39,258 121,347 23,-44 97,17 16,-190 -54,-141 -61,-101 -137,-157z"/>
   <path class="fil0" d="M12226 11151c-36,55 -67,87 -96,189 -85,300 -17,132 15,192 166,-109 155,-282 81,-381z"/>
   <path class="fil0" d="M15648 18255c-195,-110 -231,-112 -381,39 34,20 -14,79 216,38 49,-9 164,-73 165,-77z"/>
   <path class="fil0" d="M24497 7651c102,159 4,110 290,123 -29,-48 11,-73 -109,-140 -205,-114 -152,-1 -181,17z"/>
   <path class="fil0" d="M29008 29763c-106,105 -47,6 -94,174 123,74 -27,48 210,51 -12,-200 19,-123 -116,-225z"/>
   <path class="fil0" d="M28812 30557c-117,135 -165,113 33,229 155,-110 117,-129 -33,-229z"/>
   <path class="fil0" d="M11557 36170c-21,-32 17,-111 -119,-104 -157,8 -59,9 -98,104 214,156 157,40 217,0z"/>
   <path class="fil0" d="M9001 22646c-175,-117 -184,-54 -246,59 181,116 156,66 246,-59z"/>
   <path class="fil0" d="M21024 43358c-111,44 -59,-68 -99,68 -68,233 27,133 40,156 113,-91 166,-46 59,-224z"/>
   <path class="fil0" d="M29786 21347c269,-85 176,-240 -64,-171l64 171z"/>
   <path class="fil0" d="M9205 23021c-148,130 -130,108 0,244 136,-148 128,-110 0,-244z"/>
   <path class="fil0" d="M29609 21408c-113,201 -63,78 0,170 168,-155 20,-143 0,-170z"/>
   <path class="fil0" d="M11439 36538c-63,123 -48,45 -2,146 83,-96 62,147 43,-59 -11,-123 53,-19 -41,-87z"/>
  </g>
 </g>
</svg>
