<?xml version="1.0" encoding="UTF-8"?>
<svg width="500" height="500" version="1.1" viewBox="0 0 500.00001 500.00001" xmlns="http://www.w3.org/2000/svg">
 <g transform="translate(0 -552.36)">
  <path transform="translate(0 552.36)" d="m259.02 69.146c-4.8512 1e-6 -9.7024 1.8586-13.42 5.5762l-198.94 198.94c-7.4351 7.4351-7.4374 19.405-2e-3 26.84l45.229 45.23c7.4351 7.4351 19.409 7.4351 26.844 0l198.94-198.94c7.4351-7.4351 7.4329-19.407-2e-3 -26.842l-45.228-45.229c-3.7176-3.7176-8.5687-5.5762-13.42-5.5762zm45.141 231.46c-2.5802 0-5.5982 0.63189-7.1367 2.9668l-3.291 3.291-3.291 3.291-9.8145 9.8144-3.2891 3.2891-3.291 3.291c-3.9544 3.9544-3.9545 10.321 0 14.275l130.82 130.82c3.9544 3.9544 10.321 3.9545 14.275 0l22.977-22.977c3.9545-3.9545 3.9544-10.321 0-14.275l-130.82-130.82c-1.9772-1.9772-4.5585-2.9668-7.1387-2.9668z" fill="#555"/>
  <path d="m69.265 875.48-13.455 13.455 50.649 50.649 148.07-104.63 62.051 62.051" fill="none" stroke="#555" stroke-linecap="round" stroke-linejoin="round" stroke-width="28"/>
 </g>
</svg>
