<?xml version='1.0' encoding='utf-8'?>
<svg xmlns="http://www.w3.org/2000/svg" width="385.93px" height="311.85px" enable-background="new 0 0 385.926 311.852" version="1.1" viewBox="0 0 385.926 311.852">
		<rect x="182.93" y="77.141" width="10.737" height="44.232"/>
		<rect transform="matrix(.866 -.5 .5 .866 -34.922 89.228)" x="143.67" y="87.661" width="10.738" height="44.233"/>
		<rect transform="matrix(.5 -.866 .866 .5 -59.816 173.43)" x="114.92" y="116.4" width="10.738" height="44.234"/>
		<rect x="87.656" y="172.41" width="44.233" height="10.737"/>
		<rect transform="matrix(-.5 -.866 .866 -.5 -7.5363 429.73)" x="114.92" y="194.93" width="10.738" height="44.234"/>
		<rect transform="matrix(-.866 -.5 .5 -.866 155.2 533.16)" x="143.66" y="223.67" width="10.738" height="44.233"/>
		<rect x="182.93" y="234.19" width="10.737" height="44.233"/>
		<rect transform="matrix(-.866 .5 -.5 -.866 547.53 344.85)" x="222.19" y="223.67" width="10.738" height="44.233"/>
		<rect transform="matrix(-.5 .866 -.866 -.5 572.42 103.61)" x="250.93" y="194.93" width="10.738" height="44.233"/>
		<rect x="244.7" y="172.41" width="44.233" height="10.737"/>
			<rect transform="matrix(.5001 .866 -.866 .5001 248.09 -152.7)" x="250.93" y="116.4" width="10.737" height="44.233"/>
		<rect transform="matrix(.866 .5 -.5 .866 85.375 -99.072)" x="222.19" y="87.66" width="10.737" height="44.234"/>
	<path d="m188.3 134.77c-23.683 0-42.95 19.269-42.95 42.951 0 23.683 19.268 42.95 42.95 42.95 23.684 0 42.951-19.268 42.951-42.95 0-23.68-19.27-42.95-42.95-42.95zm0 75.17c-17.762 0-32.212-14.45-32.212-32.213s14.45-32.213 32.212-32.213c17.763 0 32.213 14.45 32.213 32.213s-14.45 32.21-32.21 32.21z"/>
</svg>